<svg id="Layer_1" data-name="Layer 1" xmlns="http://www.w3.org/2000/svg" viewBox="0 0 71.99 99.66"><defs><style>.cls-1{fill:#a3c617;}</style></defs><g id="Layer_1-2" data-name="Layer_1"><path class="cls-1" d="M66.19,98.53c-1.11-5.5,2.72-14.54,5-19.79,4.85-10.94,27.38-9,31.24-10.94,1.33-.65,3.31-2.46,1.44-3.68-6-3.86-17.14,5.92-9.24-9.78,11.65-23.05-9.12-1.65-6.91.34,5,4.45-6.52,13.4-15,15.45-6.74,1.64-2.72-6.89-1.33-8.73.65-.88,8.16-5,9.7-6S90,48.5,86.62,45.27,79.11,46.46,78.89,50c-.65,10.23-15.79-2-4.11-11.73,1.87-1.59,12.84-10.8,9.32-13-2.83-1.24-3.94,2.64-6.26,3C73.73,24.27,92.92,9.84,88.58,6.24c-4.19-1.84-4.7,8.13-8.13,9.44-1-1.62.11-4.57-1.73-5.76-5.44-3.6-2.81,14-4.65,15.65-3.52-1.25-4.34-15.48-9.3-12.59-5.95,3.49,12.87,20.81,3.72,21.32-1.2-1.19-.71-3.35-3.07-3.83-3.51,1.39-.56,7.09-1.87,9.53-6.23-.46.4-18.54-5.41-16s-5.22-.85-4.37-4.84C56,8.65,44.68,8.7,49.32,19.53c1.17,2.72,2.41,6.35,1.39,9.41-1.87-.62-6.37-7-8.93-8.27-7.53-3.86-4.39,1.84-2,4.33,3.55,3.77,7.68,5.76,13.1,12.27C59.27,45,73,69.9,63,66.84c-7.36-2.27-8.64-18.62-14.11-15.79S50.43,63,51,66.47c-1-.14-19.62-8.48-15.11-1.3s15.79,4.11,23.21,7C72,77.3,60.15,93.74,50,82.06c-8.42-9.58-20.15-8.48-16.61-2.75,3.91,6.38,23.44,7.14,23.07,16.27-.14,3.37-.79,6.72-1.19,10.09H67.86C67.49,103.54,66.9,102.07,66.19,98.53Z" transform="translate(-32.69 -6.01)"/></g></svg>