<svg id="Layer_1" data-name="Layer 1" xmlns="http://www.w3.org/2000/svg" viewBox="0 0 54.38 24.48"><defs><style>.cls-1{fill:#fff;}</style></defs><g id="Layer_1-2" data-name="Layer_1"><path class="cls-1" d="M60,47.14c-3.66-1.09-6-1.93-10.54-1-4,.9-5.2,2.38-7.06,4.49-11.57-1.54-13.24,9.13-3.28,9.9.58,7.84,12.08,9,17.09,4.69,3.85,1.54,5.84,3.53,13.42,2.57a12.71,12.71,0,0,0,6.17-2.25c1.73-1.16,4.43-.51,6.94-1.67,5.2-2.25,6.49-8.74-1.35-10.92-2.57-.71-1.41,0-2.7-1.8s-3.15-2.57-6.16-2.76C72.33,42.26,61.73,42.19,60,47.14Z" transform="translate(-32.58 -43.6)"/></g></svg>