<svg id="Layer_1" data-name="Layer 1" xmlns="http://www.w3.org/2000/svg" viewBox="0 0 50.89 38.39"><defs><style>.cls-1{fill:#f3910e;}.cls-2{fill:#84bc30;}.cls-3{fill:#fff;}.cls-4{fill:#2b9ed9;}</style></defs><g id="Layer_1-2" data-name="Layer_1"><g id="_2473841223920" data-name=" 2473841223920"><path class="cls-1" d="M67.88,42.92s-3.37-6.62-6-6.26-.61,2-1.93,3.25-2.53-1-3.73,0-.12,2-1,2.65-1.68-.49-2.52.36-.12,2-.85,2.52-1.44-.36-2,.61-.24,4.33-.24,4.33Z" transform="translate(-34.33 -36.64)"/><path class="cls-2" d="M34.9,56c1.69-.36,5.06,5.78,7.35,5.78s2.4-10.47,12.39-17S75,44.72,78,51.34c1.92,4.21,4,5.66,5.29,6.14a.93.93,0,0,1,.85-.6A1.08,1.08,0,0,1,85.21,58a1.09,1.09,0,0,1-.36.84,1.1,1.1,0,0,1,.36.85,1.08,1.08,0,0,1-1.08,1.08c-.12,0-.24-.12-.36-.12-1.45,3.49-5.42,8.91-14.45,11.19-12.51,3.25-25.51-7.7-26.83-7.58s-4.94,4.69-6,4.21-.6-3.13-.48-5.3S33.1,56.27,34.9,56Z" transform="translate(-34.33 -36.64)"/><path class="cls-3" d="M69.92,56a3.14,3.14,0,0,0,2.89,3.38,3.48,3.48,0,0,0,0-6.86C71.13,52.55,69.92,54.11,69.92,56Z" transform="translate(-34.33 -36.64)"/><path class="cls-4" d="M72.09,55.79a1.09,1.09,0,1,0,1.08-1.08A1.08,1.08,0,0,0,72.09,55.79Z" transform="translate(-34.33 -36.64)"/><path class="cls-1" d="M64,67.11c1.08.24-.36,7.22-1.57,7.82s-5.41-1.45-5.17-2.52S62.46,66.63,64,67.11Z" transform="translate(-34.33 -36.64)"/></g></g></svg>