<svg id="Layer_1" data-name="Layer 1" xmlns="http://www.w3.org/2000/svg" viewBox="0 0 66.72 35.59"><defs><style>.cls-1{fill:#d1d300;}.cls-2{fill:#3ab2ac;}.cls-3{fill:#fff;}.cls-4{fill:#2b9ed9;}</style></defs><g id="Layer_1-2" data-name="Layer_1"><g id="_2473832785616" data-name=" 2473832785616"><path class="cls-1" d="M71.84,66.27s-.47,5-2.84,6.78-7.56-.94-7.56-.94-2.21-.8,3.15-6.32Z" transform="translate(-26.41 -38.05)"/><path class="cls-1" d="M71.84,46.88s-4.25-8.83-6.78-8.83c-2.36,0-8.51,4.41-7.72,6.78s7.41,3.47,7.41,3.47Z" transform="translate(-26.41 -38.05)"/><path class="cls-2" d="M29.9,44.51C36.53,41,42.52,54.6,44.25,54.6a5.8,5.8,0,0,0,2.21-.47c0-.16.16-.16.16-.31h0c4.25-3.32,12.45-8.68,21.75-8.68,12.93,0,23.5,10.09,24.76,11.35h0v.16h0C91.87,57.92,81.3,68.16,68.37,68.16c-9.77,0-18.13-5.83-22.23-9.3C40.63,60.6,37,71.94,34.48,71.48,31.79,71.16,31,69,32.9,66c2.05-3.16,1.42-2.37.15-3.16s.63-2.68,1.11-5.2c.48-2.68-1.89-5.05-4.26-6.31C27.7,50.19,23.28,47.82,29.9,44.51Z" transform="translate(-26.41 -38.05)"/><path class="cls-3" d="M79.1,56.18a3.89,3.89,0,0,0,3.62,4.1c1.89,0,3.47-1.9,3.47-4.1,0-2.36-1.58-4.26-3.47-4.26C80.67,51.92,79.1,53.82,79.1,56.18Z" transform="translate(-26.41 -38.05)"/><path class="cls-4" d="M81.78,55.86a1.42,1.42,0,0,0,1.41,1.43,1.43,1.43,0,0,0,0-2.84A1.41,1.41,0,0,0,81.78,55.86Z" transform="translate(-26.41 -38.05)"/></g></g></svg>