<svg id="Layer_1" data-name="Layer 1" xmlns="http://www.w3.org/2000/svg" viewBox="0 0 52.45 31"><defs><style>.cls-1{fill:#3aa9e0;}.cls-2{fill:#fdc900;}.cls-3{fill:#fff;}</style></defs><g id="Layer_1-2" data-name="Layer_1"><g id="_2473841237552" data-name=" 2473841237552"><path class="cls-1" d="M72.85,62.41s-4.1-6.44-7.19-6.57S52.76,64.28,51.15,67.5,72.85,62.41,72.85,62.41Z" transform="translate(-33.54 -55.84)"/><path class="cls-2" d="M35.52,65.52c4.1-5,8.31,5.08,9.55,5.08a2.91,2.91,0,0,0,1.86-.87l.25-.25h0c3.22-3.1,9.92-8.31,17.49-8.31,6.81,0,12.89,1.87,16.36,4.72h.13a.12.12,0,0,0,.12.12h0l.5.5h0l.12.12H82v.12l.13.13a.12.12,0,0,1,.12.12h0a.13.13,0,0,1,.13.13h0a.12.12,0,0,1,.12.12h0a2.21,2.21,0,0,0,.25.25h0a.12.12,0,0,0,.12.13v.12l.13.12h0c.12.12.12.12.12.25h0a.12.12,0,0,1,.12.12.13.13,0,0,0,.13.13v.12a.12.12,0,0,1,.12.13v.12h.12V69a.13.13,0,0,1,.13.13,1.44,1.44,0,0,1,1-.37A1.17,1.17,0,0,1,86,70a1.35,1.35,0,0,1-.74,1.24.75.75,0,0,1,.12.49,1,1,0,0,1-1,1.12h-.13V73a.12.12,0,0,1-.12.12v.37a.12.12,0,0,0-.12.12v.25l-.13.13h0a.46.46,0,0,1-.12.25v.12a.12.12,0,0,1-.13.12v.13l-.12.12h0c0,.13,0,.13-.12.13v.12c0,.12,0,.12-.13.12v.13a.42.42,0,0,0-.12.25H83v.12a.12.12,0,0,0-.13.12s0,.13-.12.13v.12h-.13c0,.13,0,.13-.12.13v.12a.12.12,0,0,0-.12.12.13.13,0,0,0-.13.13l-.12.12-.13.12a.12.12,0,0,0-.12.13h-.12c0,.12,0,.12-.13.12v.13a.12.12,0,0,0-.12.12H81.4a.12.12,0,0,1-.12.13c0,.12,0,.12-.12.12a1.62,1.62,0,0,1-.5.37v.12h-.25V78c-.12,0-.12.12-.24.12h0c-.13.13-.13.13-.25.13v.12a2.89,2.89,0,0,0-.63.38h-.12l-.12.12h-.13L78.8,79h-.13c0,.12-.12.12-.24.12h0a6.09,6.09,0,0,0-1,.63h-.13a.41.41,0,0,0-.25.12h0c-.12,0-.24,0-.24.12h0c-.5.13-1,.38-1.61.5h0c0,.12-.13.12-.25.12h0a19.23,19.23,0,0,1-4.1,1h0a32.06,32.06,0,0,1-6.19.62c-7.57,0-14.27-5.33-17.49-8.43h0c-3.48-.74-8.31,6.33-10.67,5.58s-1-2.1-1.85-2.85,0-2,.12-4S31.55,70.48,35.52,65.52Z" transform="translate(-33.54 -55.84)"/><path class="cls-1" d="M71.86,79.65c.86.13-.38,6.45-1.49,7.07s-5-1.36-4.71-2.24S70.25,79.28,71.86,79.65Z" transform="translate(-33.54 -55.84)"/><path class="cls-3" d="M74.71,68.37a2.49,2.49,0,0,0,2.6,2.11,2.21,2.21,0,1,0,0-4.35A2.49,2.49,0,0,0,74.71,68.37Z" transform="translate(-33.54 -55.84)"/><path class="cls-1" d="M76.69,68.12a1,1,0,0,0,1,1,.91.91,0,0,0,1-1,1,1,0,0,0-1-1A1.07,1.07,0,0,0,76.69,68.12Z" transform="translate(-33.54 -55.84)"/></g></g></svg>