<svg id="Layer_1" data-name="Layer 1" xmlns="http://www.w3.org/2000/svg" viewBox="0 0 32.07 32.94"><defs><style>.cls-1{fill:#8d6541;}.cls-2{fill:#b69755;}.cls-3{fill:#728835;}.cls-4{fill:#86993d;}.cls-5{fill:#fccc76;}.cls-6{fill:#8e653e;}.cls-7{fill:#8d643c;}.cls-8{fill:#625e5d;}</style></defs><g id="Layer_1-2" data-name="Layer_1"><g id="_2437949120064" data-name=" 2437949120064"><path class="cls-1" d="M18,11c-1-.58-.64-.31-.57-.27.42.23.84.51,1.29.78a3.63,3.63,0,0,0,3.56,2.37c0,1.17,2.2,3.12,3.6,3.08a1,1,0,0,0,.34,0c0,1.52,1.44,4.13,2.5,4.48a1.15,1.15,0,0,0-.61,1.33,1.09,1.09,0,0,0,1.4.74,1.12,1.12,0,0,0,.72-1.41A1.1,1.1,0,0,0,29,21.33l0,0c-1.06-.24-2.46-3.12-2.49-4.25a48.18,48.18,0,0,1,8.74,10.09c.23.31.91,0,.72-.24C31.08,19.78,27.68,16.35,18,11Zm.72.51.11.08a3.74,3.74,0,0,0,.5.85A5.34,5.34,0,0,1,18.74,11.52Zm.11.08c1.06.66,2.2,1.36,3.37,2.22h0A3.76,3.76,0,0,1,18.85,11.6ZM22.49,14c1.17.86,2.42,1.79,3.67,2.85a.27.27,0,0,1-.15,0C24.76,16.78,22.6,15.41,22.49,14Zm0,.51a3.16,3.16,0,0,0,.83,1.13A3.16,3.16,0,0,1,22.53,14.48Zm6.55,7.59a.35.35,0,0,0-.23.47.33.33,0,0,0,.45.23.37.37,0,0,0-.22-.7Zm-.16-.54a1,1,0,0,0-.6,1.17.91.91,0,1,0,.6-1.17Z" transform="translate(-17.34 -10.64)"/><path class="cls-2" d="M44.26,30.45l0,1.4c-2.46-.54-7.5-.47-10.22-.5.11-.59-.72-2.81,1.1-2.5C38.24,29.48,41,30,44.26,30.45Z" transform="translate(-17.34 -10.64)"/><path class="cls-3" d="M44.26,30.61c-.8.19-4.36-.28-5-.86,0-.2,0-.08.15-.2-1.78-2.06-2.49-1.32-3.74-3.46-.23-.24.07-.39,0-.78a21.55,21.55,0,0,1,3,1.28,28.89,28.89,0,0,1-.42-3c.49-.23.95-1.24,1.1-1.44s.3-.23.41-.47C42.44,22.43,44.33,27.8,44.26,30.61Z" transform="translate(-17.34 -10.64)"/><path class="cls-4" d="M39.22,29.75c-1.47-.39-2.34-1.6-3.48-2.61a4.26,4.26,0,0,0-1-.74c0-.39-.15-1.09.53-1.13l.34,0,2.69,2.26c.23-.31.38-3.39,1.06-4.25a1,1,0,0,1,1.74.78C41.19,26.36,39.45,29.79,39.22,29.75Z" transform="translate(-17.34 -10.64)"/><path class="cls-5" d="M39.37,21.1c0,.12-.07.27,0,.35l.3.23c-.11.24-.18.2-.41.47s-.61,1.21-1.1,1.44L37.9,23c-.38-.93-1.33-.58-1.75-.7-.18,0-.26-.39-.3-.51l-.34-.08c-.15,0,.08-.62,0-1-.3-.08.46-.39.23-.58,0,0,2.2.07,2.65.07.11.32,0,.67.23.82A.7.7,0,0,0,39.37,21.1Zm-4,4.17c-.68,0-.49.74-.53,1.13-1,.23-1.55-.35-1.4-1.56l.3-.08c.35.08.84.31.8-.19A1,1,0,0,1,35.32,25.27Z" transform="translate(-17.34 -10.64)"/><path class="cls-6" d="M39.37,21.1a.7.7,0,0,1-.79-.12c-.19-.15-.12-.5-.23-.82.3-.15.91-.58,1.18-.7Z" transform="translate(-17.34 -10.64)"/><path class="cls-6" d="M37.78,21.49A4.84,4.84,0,0,1,37.9,23c-.08.55-.19.74-.65.82s-1.06-1.09-1.1-1.52c.08,0,.31,0,.38-.12s.08,0,.12-.11c.11-.39-.57-.08-.72,0l-.08-.24a6.31,6.31,0,0,1,1.25-.31c.23-.39.15-.54.08-1l.68-.47a4.12,4.12,0,0,0-.11,1Z" transform="translate(-17.34 -10.64)"/><path class="cls-2" d="M39,17.21l.34.93c.53.23,1.89.12,1.44.58-1.71,1.8-4.92,2.19-6.63,1.91-.68-.11.83-.93,1.17-1.36a6.08,6.08,0,0,1,.08-1.44C35.63,17.05,38.05,16.82,39,17.21Z" transform="translate(-17.34 -10.64)"/><path class="cls-7" d="M26.88,37.42c1.48.78,18.32.43,20,.16.87-.16,2.5-5.57,2.5-6-10.26-.08-17.27-.82-27.34-1.6C22.79,31.23,26,36.92,26.88,37.42Z" transform="translate(-17.34 -10.64)"/><polygon class="cls-8" points="1.41 0.88 1.44 0.88 1.59 0.88 1.59 32.94 1.25 32.94 1.25 0.88 1.41 0.88"/></g></g></svg>