<svg id="Layer_1" data-name="Layer 1" xmlns="http://www.w3.org/2000/svg" viewBox="0 0 48 48"><defs><style>.cls-1{fill:#fdc900;}</style></defs><path class="cls-1" d="M58.07,32c-2.41,4.14-2.75,5.84-9.16,4.08.28,4.94-2,7.26-6.75,7.4,2.67,4.25.8,8.17-3.15,9.47.6.68,2.64,1.65,3.12,4.37A6.16,6.16,0,0,1,40.23,63c.66.42,1.59.45,2.58,1.05a6,6,0,0,1,2.27,7.74c2.36-.12,3.83-.43,5.64.9a6.07,6.07,0,0,1,2.47,5c1.81-.93,3-2.12,5.84-1.36a5.86,5.86,0,0,1,3.91,3.6c2.7-3.74,5.31-5.47,9.87-2.15.37-2.5.82-3.74,2.41-5,2-1.56,3.12-1.08,5.76-1-1.68-4,.14-7.06,4.11-8.48l.22-.09.43-.19c.05,0,.14-.06.23-.12-3.1-2.78-3-7.23,1-9.72-1.22-1-6.6-2.47-3.11-9.67-4.74-.34-7.06-2.32-6.7-7.48-2.26.73-3.74,1.36-6.09.08S69.18,34,68,31.88C64.33,35.4,62,35.43,58.07,32Z" transform="translate(-39.01 -31.88)"/></svg>